<?xml version="1.0" encoding="UTF-8" standalone="no"?>
<!DOCTYPE svg PUBLIC "-//W3C//DTD SVG 1.1//EN"
 "http://www.w3.org/Graphics/SVG/1.1/DTD/svg11.dtd">
<!-- Generated by graphviz version 7.1.0 (0)
 -->
<!-- Title: snakemake_dag Pages: 1 -->
<svg width="2188pt" height="404pt"
 viewBox="0.00 0.00 2188.00 404.00" xmlns="http://www.w3.org/2000/svg" xmlns:xlink="http://www.w3.org/1999/xlink">
<g id="graph0" class="graph" transform="scale(1 1) rotate(0) translate(4 400)">
<title>snakemake_dag</title>
<polygon fill="white" stroke="none" points="-4,4 -4,-400 2184,-400 2184,4 -4,4"/>
<!-- 0 -->
<g id="node1" class="node">
<title>0</title>
<path fill="none" stroke="#d8c356" stroke-width="2" d="M678,-36C678,-36 648,-36 648,-36 642,-36 636,-30 636,-24 636,-24 636,-12 636,-12 636,-6 642,0 648,0 648,0 678,0 678,0 684,0 690,-6 690,-12 690,-12 690,-24 690,-24 690,-30 684,-36 678,-36"/>
<text text-anchor="middle" x="663" y="-15.5" font-family="sans" font-size="10.00">all</text>
</g>
<!-- 1 -->
<g id="node2" class="node">
<title>1</title>
<path fill="none" stroke="#56d8c9" stroke-width="2" d="M179,-396C179,-396 89,-396 89,-396 83,-396 77,-390 77,-384 77,-384 77,-372 77,-372 77,-366 83,-360 89,-360 89,-360 179,-360 179,-360 185,-360 191,-366 191,-372 191,-372 191,-384 191,-384 191,-390 185,-396 179,-396"/>
<text text-anchor="middle" x="134" y="-375.5" font-family="sans" font-size="10.00">mpse_import_qiime2</text>
</g>
<!-- 1&#45;&gt;0 -->
<g id="edge1" class="edge">
<title>1&#45;&gt;0</title>
<path fill="none" stroke="grey" stroke-width="2" d="M98.79,-359.2C59.09,-336.34 0,-292.62 0,-235 0,-235 0,-235 0,-161 0,-101.83 44.81,-95.75 99,-72 193.14,-30.75 509.49,-21.53 622.47,-19.53"/>
<polygon fill="grey" stroke="grey" stroke-width="2" points="622.25,-23.04 632.19,-19.37 622.13,-16.04 622.25,-23.04"/>
</g>
<!-- 2 -->
<g id="node3" class="node">
<title>2</title>
<path fill="none" stroke="#d89c56" stroke-width="2" d="M296,-324C296,-324 244,-324 244,-324 238,-324 232,-318 232,-312 232,-312 232,-300 232,-300 232,-294 238,-288 244,-288 244,-288 296,-288 296,-288 302,-288 308,-294 308,-300 308,-300 308,-312 308,-312 308,-318 302,-324 296,-324"/>
<text text-anchor="middle" x="270" y="-303.5" font-family="sans" font-size="10.00">mpse_rarefy</text>
</g>
<!-- 1&#45;&gt;2 -->
<g id="edge24" class="edge">
<title>1&#45;&gt;2</title>
<path fill="none" stroke="grey" stroke-width="2" d="M168.67,-359.15C185.46,-350.52 205.84,-340.02 223.91,-330.72"/>
<polygon fill="grey" stroke="grey" stroke-width="2" points="225.41,-333.89 232.7,-326.2 222.21,-327.66 225.41,-333.89"/>
</g>
<!-- 2&#45;&gt;0 -->
<g id="edge2" class="edge">
<title>2&#45;&gt;0</title>
<path fill="none" stroke="grey" stroke-width="2" d="M231.22,-294.92C157.46,-273.76 8.47,-220.26 57,-144 118.42,-47.49 497.11,-25.04 622.63,-20.23"/>
<polygon fill="grey" stroke="grey" stroke-width="2" points="622.42,-23.74 632.29,-19.88 622.17,-16.74 622.42,-23.74"/>
</g>
<!-- 3 -->
<g id="node4" class="node">
<title>3</title>
<path fill="none" stroke="#56d85b" stroke-width="2" d="M152,-180C152,-180 78,-180 78,-180 72,-180 66,-174 66,-168 66,-168 66,-156 66,-156 66,-150 72,-144 78,-144 78,-144 152,-144 152,-144 158,-144 164,-150 164,-156 164,-156 164,-168 164,-168 164,-174 158,-180 152,-180"/>
<text text-anchor="middle" x="115" y="-159.5" font-family="sans" font-size="10.00">mpse_rarefy_plot</text>
</g>
<!-- 2&#45;&gt;3 -->
<g id="edge25" class="edge">
<title>2&#45;&gt;3</title>
<path fill="none" stroke="grey" stroke-width="2" d="M231.02,-291.15C210.23,-282.33 185.24,-269.29 167,-252 149.4,-235.32 135.86,-211.35 127.02,-192.5"/>
<polygon fill="grey" stroke="grey" stroke-width="2" points="130.26,-191.17 123,-183.45 123.86,-194.01 130.26,-191.17"/>
</g>
<!-- 4 -->
<g id="node5" class="node">
<title>4</title>
<path fill="none" stroke="#ced856" stroke-width="2" d="M273.5,-180C273.5,-180 194.5,-180 194.5,-180 188.5,-180 182.5,-174 182.5,-168 182.5,-168 182.5,-156 182.5,-156 182.5,-150 188.5,-144 194.5,-144 194.5,-144 273.5,-144 273.5,-144 279.5,-144 285.5,-150 285.5,-156 285.5,-156 285.5,-168 285.5,-168 285.5,-174 279.5,-180 273.5,-180"/>
<text text-anchor="middle" x="234" y="-165" font-family="sans" font-size="10.00">mpse_composition</text>
<text text-anchor="middle" x="234" y="-154" font-family="sans" font-size="10.00">level: Phylum</text>
</g>
<!-- 2&#45;&gt;4 -->
<g id="edge26" class="edge">
<title>2&#45;&gt;4</title>
<path fill="none" stroke="grey" stroke-width="2" d="M231.11,-293.65C210.86,-285.54 187.91,-272.38 176,-252 167.93,-238.18 169.55,-230.64 176,-216 180.47,-205.86 187.94,-196.82 196.06,-189.21"/>
<polygon fill="grey" stroke="grey" stroke-width="2" points="198.11,-192.06 203.44,-182.9 193.57,-186.73 198.11,-192.06"/>
</g>
<!-- 5 -->
<g id="node6" class="node">
<title>5</title>
<path fill="none" stroke="#ced856" stroke-width="2" d="M394.5,-180C394.5,-180 315.5,-180 315.5,-180 309.5,-180 303.5,-174 303.5,-168 303.5,-168 303.5,-156 303.5,-156 303.5,-150 309.5,-144 315.5,-144 315.5,-144 394.5,-144 394.5,-144 400.5,-144 406.5,-150 406.5,-156 406.5,-156 406.5,-168 406.5,-168 406.5,-174 400.5,-180 394.5,-180"/>
<text text-anchor="middle" x="355" y="-165" font-family="sans" font-size="10.00">mpse_composition</text>
<text text-anchor="middle" x="355" y="-154" font-family="sans" font-size="10.00">level: Class</text>
</g>
<!-- 2&#45;&gt;5 -->
<g id="edge27" class="edge">
<title>2&#45;&gt;5</title>
<path fill="none" stroke="grey" stroke-width="2" d="M240,-287.13C228.01,-278.23 215.52,-266.3 209,-252 202.36,-237.44 199.82,-229.1 209,-216 214.18,-208.61 253.86,-194.46 290.55,-182.63"/>
<polygon fill="grey" stroke="grey" stroke-width="2" points="291.47,-186.01 299.94,-179.64 289.35,-179.34 291.47,-186.01"/>
</g>
<!-- 6 -->
<g id="node7" class="node">
<title>6</title>
<path fill="none" stroke="#ced856" stroke-width="2" d="M309.5,-252C309.5,-252 230.5,-252 230.5,-252 224.5,-252 218.5,-246 218.5,-240 218.5,-240 218.5,-228 218.5,-228 218.5,-222 224.5,-216 230.5,-216 230.5,-216 309.5,-216 309.5,-216 315.5,-216 321.5,-222 321.5,-228 321.5,-228 321.5,-240 321.5,-240 321.5,-246 315.5,-252 309.5,-252"/>
<text text-anchor="middle" x="270" y="-237" font-family="sans" font-size="10.00">mpse_composition</text>
<text text-anchor="middle" x="270" y="-226" font-family="sans" font-size="10.00">level: Order</text>
</g>
<!-- 2&#45;&gt;6 -->
<g id="edge28" class="edge">
<title>2&#45;&gt;6</title>
<path fill="none" stroke="grey" stroke-width="2" d="M270,-287.34C270,-280.75 270,-273.08 270,-265.67"/>
<polygon fill="grey" stroke="grey" stroke-width="2" points="273.5,-265.93 270,-255.93 266.5,-265.93 273.5,-265.93"/>
</g>
<!-- 7 -->
<g id="node8" class="node">
<title>7</title>
<path fill="none" stroke="#ced856" stroke-width="2" d="M430.5,-252C430.5,-252 351.5,-252 351.5,-252 345.5,-252 339.5,-246 339.5,-240 339.5,-240 339.5,-228 339.5,-228 339.5,-222 345.5,-216 351.5,-216 351.5,-216 430.5,-216 430.5,-216 436.5,-216 442.5,-222 442.5,-228 442.5,-228 442.5,-240 442.5,-240 442.5,-246 436.5,-252 430.5,-252"/>
<text text-anchor="middle" x="391" y="-237" font-family="sans" font-size="10.00">mpse_composition</text>
<text text-anchor="middle" x="391" y="-226" font-family="sans" font-size="10.00">level: Family</text>
</g>
<!-- 2&#45;&gt;7 -->
<g id="edge29" class="edge">
<title>2&#45;&gt;7</title>
<path fill="none" stroke="grey" stroke-width="2" d="M300.85,-287.15C315.5,-278.68 333.23,-268.42 349.07,-259.25"/>
<polygon fill="grey" stroke="grey" stroke-width="2" points="350.69,-262.37 357.59,-254.33 347.18,-256.31 350.69,-262.37"/>
</g>
<!-- 8 -->
<g id="node9" class="node">
<title>8</title>
<path fill="none" stroke="#ced856" stroke-width="2" d="M551.5,-252C551.5,-252 472.5,-252 472.5,-252 466.5,-252 460.5,-246 460.5,-240 460.5,-240 460.5,-228 460.5,-228 460.5,-222 466.5,-216 472.5,-216 472.5,-216 551.5,-216 551.5,-216 557.5,-216 563.5,-222 563.5,-228 563.5,-228 563.5,-240 563.5,-240 563.5,-246 557.5,-252 551.5,-252"/>
<text text-anchor="middle" x="512" y="-237" font-family="sans" font-size="10.00">mpse_composition</text>
<text text-anchor="middle" x="512" y="-226" font-family="sans" font-size="10.00">level: Genus</text>
</g>
<!-- 2&#45;&gt;8 -->
<g id="edge30" class="edge">
<title>2&#45;&gt;8</title>
<path fill="none" stroke="grey" stroke-width="2" d="M308.88,-293.75C346.17,-282.97 403.17,-266.48 447.3,-253.71"/>
<polygon fill="grey" stroke="grey" stroke-width="2" points="448.13,-257.12 456.76,-250.98 446.18,-250.39 448.13,-257.12"/>
</g>
<!-- 9 -->
<g id="node10" class="node">
<title>9</title>
<path fill="none" stroke="#ced856" stroke-width="2" d="M672.5,-252C672.5,-252 593.5,-252 593.5,-252 587.5,-252 581.5,-246 581.5,-240 581.5,-240 581.5,-228 581.5,-228 581.5,-222 587.5,-216 593.5,-216 593.5,-216 672.5,-216 672.5,-216 678.5,-216 684.5,-222 684.5,-228 684.5,-228 684.5,-240 684.5,-240 684.5,-246 678.5,-252 672.5,-252"/>
<text text-anchor="middle" x="633" y="-237" font-family="sans" font-size="10.00">mpse_composition</text>
<text text-anchor="middle" x="633" y="-226" font-family="sans" font-size="10.00">level: OTU</text>
</g>
<!-- 2&#45;&gt;9 -->
<g id="edge31" class="edge">
<title>2&#45;&gt;9</title>
<path fill="none" stroke="grey" stroke-width="2" d="M308.86,-299.43C364.22,-291.22 469.22,-274.66 567.89,-252.81"/>
<polygon fill="grey" stroke="grey" stroke-width="2" points="568.57,-256.25 577.56,-250.64 567.03,-249.42 568.57,-256.25"/>
</g>
<!-- 10 -->
<g id="node11" class="node">
<title>10</title>
<path fill="none" stroke="#56d0d8" stroke-width="2" d="M761,-252C761,-252 715,-252 715,-252 709,-252 703,-246 703,-240 703,-240 703,-228 703,-228 703,-222 709,-216 715,-216 715,-216 761,-216 761,-216 767,-216 773,-222 773,-228 773,-228 773,-240 773,-240 773,-246 767,-252 761,-252"/>
<text text-anchor="middle" x="738" y="-231.5" font-family="sans" font-size="10.00">mpse_venn</text>
</g>
<!-- 2&#45;&gt;10 -->
<g id="edge32" class="edge">
<title>2&#45;&gt;10</title>
<path fill="none" stroke="grey" stroke-width="2" d="M308.76,-303.21C381.77,-299.19 544.6,-287.11 689.74,-252.42"/>
<polygon fill="grey" stroke="grey" stroke-width="2" points="690.56,-255.82 699.44,-250.05 688.9,-249.02 690.56,-255.82"/>
</g>
<!-- 11 -->
<g id="node12" class="node">
<title>11</title>
<path fill="none" stroke="#d8ac56" stroke-width="2" d="M895,-252C895,-252 803,-252 803,-252 797,-252 791,-246 791,-240 791,-240 791,-228 791,-228 791,-222 797,-216 803,-216 803,-216 895,-216 895,-216 901,-216 907,-222 907,-228 907,-228 907,-240 907,-240 907,-246 901,-252 895,-252"/>
<text text-anchor="middle" x="849" y="-231.5" font-family="sans" font-size="10.00">mpse_diversity_alpha</text>
</g>
<!-- 2&#45;&gt;11 -->
<g id="edge33" class="edge">
<title>2&#45;&gt;11</title>
<path fill="none" stroke="grey" stroke-width="2" d="M308.8,-302.91C392.68,-297.99 597.23,-283.78 777.61,-252.64"/>
<polygon fill="grey" stroke="grey" stroke-width="2" points="778.05,-256.11 787.3,-250.94 776.84,-249.22 778.05,-256.11"/>
</g>
<!-- 3&#45;&gt;0 -->
<g id="edge3" class="edge">
<title>3&#45;&gt;0</title>
<path fill="none" stroke="grey" stroke-width="2" d="M146,-143.13C182.89,-122.68 246.96,-89.73 306,-72 417.44,-38.53 555.06,-25.73 622.24,-21.22"/>
<polygon fill="grey" stroke="grey" stroke-width="2" points="622.31,-24.73 632.07,-20.6 621.87,-17.74 622.31,-24.73"/>
</g>
<!-- 4&#45;&gt;0 -->
<g id="edge4" class="edge">
<title>4&#45;&gt;0</title>
<path fill="none" stroke="grey" stroke-width="2" d="M257.57,-143.02C285.51,-122.63 334.18,-89.89 381,-72 463.32,-40.53 566.54,-27.25 622.46,-22.04"/>
<polygon fill="grey" stroke="grey" stroke-width="2" points="622.62,-25.54 632.27,-21.18 622,-18.57 622.62,-25.54"/>
</g>
<!-- 5&#45;&gt;0 -->
<g id="edge5" class="edge">
<title>5&#45;&gt;0</title>
<path fill="none" stroke="grey" stroke-width="2" d="M363.23,-143.27C373.68,-122.79 393.7,-89.66 421,-72 483.32,-31.69 571.6,-21.64 622.51,-19.37"/>
<polygon fill="grey" stroke="grey" stroke-width="2" points="622.32,-22.88 632.19,-19.04 622.08,-15.89 622.32,-22.88"/>
</g>
<!-- 6&#45;&gt;0 -->
<g id="edge6" class="edge">
<title>6&#45;&gt;0</title>
<path fill="none" stroke="grey" stroke-width="2" d="M322.37,-217.43C357.48,-206.32 399.93,-191.4 415,-180 462.21,-144.27 444.94,-106.58 493,-72 531.89,-44.02 585.99,-30.49 622.64,-24.17"/>
<polygon fill="grey" stroke="grey" stroke-width="2" points="622.97,-27.66 632.3,-22.63 621.87,-20.75 622.97,-27.66"/>
</g>
<!-- 7&#45;&gt;0 -->
<g id="edge7" class="edge">
<title>7&#45;&gt;0</title>
<path fill="none" stroke="grey" stroke-width="2" d="M412.57,-215.01C423.9,-205.14 437.72,-192.42 449,-180 489.32,-135.57 482.35,-108.47 530,-72 557.52,-50.94 594.51,-37.1 622.5,-28.86"/>
<polygon fill="grey" stroke="grey" stroke-width="2" points="623.43,-32.23 632.13,-26.17 621.55,-25.49 623.43,-32.23"/>
</g>
<!-- 8&#45;&gt;0 -->
<g id="edge8" class="edge">
<title>8&#45;&gt;0</title>
<path fill="none" stroke="grey" stroke-width="2" d="M512.13,-215.14C513.29,-182.94 520.01,-114.58 555,-72 572.34,-50.89 600.15,-37.52 623.21,-29.49"/>
<polygon fill="grey" stroke="grey" stroke-width="2" points="624.1,-32.88 632.55,-26.49 621.96,-26.21 624.1,-32.88"/>
</g>
<!-- 9&#45;&gt;0 -->
<g id="edge9" class="edge">
<title>9&#45;&gt;0</title>
<path fill="none" stroke="grey" stroke-width="2" d="M603.48,-215.03C591.68,-206.11 579.4,-194.19 573,-180 553.27,-136.24 549.18,-113.67 573,-72 583.85,-53.02 604.45,-40.16 623.2,-31.87"/>
<polygon fill="grey" stroke="grey" stroke-width="2" points="624.36,-35.17 632.33,-28.19 621.75,-28.68 624.36,-35.17"/>
</g>
<!-- 10&#45;&gt;0 -->
<g id="edge10" class="edge">
<title>10&#45;&gt;0</title>
<path fill="none" stroke="grey" stroke-width="2" d="M702.3,-219.22C665.7,-204.93 613.73,-184.1 611,-180 584.39,-140.05 592.84,-116.43 611,-72 614.98,-62.27 621.7,-53.36 629.01,-45.73"/>
<polygon fill="grey" stroke="grey" stroke-width="2" points="631.39,-48.3 636.23,-38.88 626.57,-43.22 631.39,-48.3"/>
</g>
<!-- 11&#45;&gt;0 -->
<g id="edge11" class="edge">
<title>11&#45;&gt;0</title>
<path fill="none" stroke="grey" stroke-width="2" d="M790.09,-218.47C764.8,-210.17 736.05,-197.78 714,-180 684.06,-155.86 677.76,-144.62 666,-108 659.99,-89.3 659.21,-67.24 659.94,-49.77"/>
<polygon fill="grey" stroke="grey" stroke-width="2" points="663.43,-50.11 660.59,-39.9 656.44,-49.65 663.43,-50.11"/>
</g>
<!-- 12 -->
<g id="node13" class="node">
<title>12</title>
<path fill="none" stroke="#56d882" stroke-width="2" d="M862.5,-180C862.5,-180 735.5,-180 735.5,-180 729.5,-180 723.5,-174 723.5,-168 723.5,-168 723.5,-156 723.5,-156 723.5,-150 729.5,-144 735.5,-144 735.5,-144 862.5,-144 862.5,-144 868.5,-144 874.5,-150 874.5,-156 874.5,-156 874.5,-168 874.5,-168 874.5,-174 868.5,-180 862.5,-180"/>
<text text-anchor="middle" x="799" y="-159.5" font-family="sans" font-size="10.00">mpse_diversity_phylogenetic</text>
</g>
<!-- 11&#45;&gt;12 -->
<g id="edge34" class="edge">
<title>11&#45;&gt;12</title>
<path fill="none" stroke="grey" stroke-width="2" d="M836.38,-215.34C831.21,-208.1 825.09,-199.53 819.32,-191.45"/>
<polygon fill="grey" stroke="grey" stroke-width="2" points="822.21,-189.47 813.55,-183.37 816.51,-193.54 822.21,-189.47"/>
</g>
<!-- 13 -->
<g id="node14" class="node">
<title>13</title>
<path fill="none" stroke="#70d856" stroke-width="2" d="M1084,-180C1084,-180 980,-180 980,-180 974,-180 968,-174 968,-168 968,-168 968,-156 968,-156 968,-150 974,-144 980,-144 980,-144 1084,-144 1084,-144 1090,-144 1096,-150 1096,-156 1096,-156 1096,-168 1096,-168 1096,-174 1090,-180 1084,-180"/>
<text text-anchor="middle" x="1032" y="-159.5" font-family="sans" font-size="10.00">mpse_diversity_beta_cal</text>
</g>
<!-- 11&#45;&gt;13 -->
<g id="edge35" class="edge">
<title>11&#45;&gt;13</title>
<path fill="none" stroke="grey" stroke-width="2" d="M895.65,-215.15C919.22,-206.14 948.07,-195.11 973.15,-185.51"/>
<polygon fill="grey" stroke="grey" stroke-width="2" points="974.2,-188.86 982.29,-182.02 971.7,-182.32 974.2,-188.86"/>
</g>
<!-- 20 -->
<g id="node21" class="node">
<title>20</title>
<path fill="none" stroke="#b6d856" stroke-width="2" d="M1853,-180C1853,-180 1799,-180 1799,-180 1793,-180 1787,-174 1787,-168 1787,-168 1787,-156 1787,-156 1787,-150 1793,-144 1799,-144 1799,-144 1853,-144 1853,-144 1859,-144 1865,-150 1865,-156 1865,-156 1865,-168 1865,-168 1865,-174 1859,-180 1853,-180"/>
<text text-anchor="middle" x="1826" y="-159.5" font-family="sans" font-size="10.00">mpse_diff_cal</text>
</g>
<!-- 11&#45;&gt;20 -->
<g id="edge42" class="edge">
<title>11&#45;&gt;20</title>
<path fill="none" stroke="grey" stroke-width="2" d="M907.92,-228.78C1084.15,-216.15 1605.4,-178.81 1773.27,-166.78"/>
<polygon fill="grey" stroke="grey" stroke-width="2" points="1773.37,-170.28 1783.1,-166.07 1772.87,-163.3 1773.37,-170.28"/>
</g>
<!-- 12&#45;&gt;0 -->
<g id="edge12" class="edge">
<title>12&#45;&gt;0</title>
<path fill="none" stroke="grey" stroke-width="2" d="M737.37,-143.09C718.91,-135.02 700.1,-123.68 687,-108 673.36,-91.68 667.41,-68.31 664.85,-49.61"/>
<polygon fill="grey" stroke="grey" stroke-width="2" points="668.34,-49.3 663.81,-39.72 661.37,-50.03 668.34,-49.3"/>
</g>
<!-- 13&#45;&gt;0 -->
<g id="edge13" class="edge">
<title>13&#45;&gt;0</title>
<path fill="none" stroke="grey" stroke-width="2" d="M967.36,-152.85C882.06,-141.68 740.3,-121.44 720,-108 708.47,-100.37 690.76,-70.87 678.14,-47.9"/>
<polygon fill="grey" stroke="grey" stroke-width="2" points="681.33,-46.44 673.5,-39.3 675.17,-49.76 681.33,-46.44"/>
</g>
<!-- 14 -->
<g id="node15" class="node">
<title>14</title>
<path fill="none" stroke="#567bd8" stroke-width="2" d="M872.5,-108C872.5,-108 741.5,-108 741.5,-108 735.5,-108 729.5,-102 729.5,-96 729.5,-96 729.5,-84 729.5,-84 729.5,-78 735.5,-72 741.5,-72 741.5,-72 872.5,-72 872.5,-72 878.5,-72 884.5,-78 884.5,-84 884.5,-84 884.5,-96 884.5,-96 884.5,-102 878.5,-108 872.5,-108"/>
<text text-anchor="middle" x="807" y="-87.5" font-family="sans" font-size="10.00">mpse_diversity_beta_plot_dist</text>
</g>
<!-- 13&#45;&gt;14 -->
<g id="edge36" class="edge">
<title>13&#45;&gt;14</title>
<path fill="none" stroke="grey" stroke-width="2" d="M974.35,-143.06C944.58,-133.8 908.02,-122.43 876.68,-112.68"/>
<polygon fill="grey" stroke="grey" stroke-width="2" points="877.98,-109.42 867.39,-109.79 875.9,-116.1 877.98,-109.42"/>
</g>
<!-- 15 -->
<g id="node16" class="node">
<title>15</title>
<path fill="none" stroke="#568ad8" stroke-width="2" d="M1045.5,-108C1045.5,-108 914.5,-108 914.5,-108 908.5,-108 902.5,-102 902.5,-96 902.5,-96 902.5,-84 902.5,-84 902.5,-78 908.5,-72 914.5,-72 914.5,-72 1045.5,-72 1045.5,-72 1051.5,-72 1057.5,-78 1057.5,-84 1057.5,-84 1057.5,-96 1057.5,-96 1057.5,-102 1051.5,-108 1045.5,-108"/>
<text text-anchor="middle" x="980" y="-87.5" font-family="sans" font-size="10.00">mpse_diversity_beta_plot_pca</text>
</g>
<!-- 13&#45;&gt;15 -->
<g id="edge37" class="edge">
<title>13&#45;&gt;15</title>
<path fill="none" stroke="grey" stroke-width="2" d="M1018.88,-143.34C1013.44,-136.01 1006.99,-127.34 1000.93,-119.18"/>
<polygon fill="grey" stroke="grey" stroke-width="2" points="1003.88,-117.27 995.1,-111.33 998.26,-121.45 1003.88,-117.27"/>
</g>
<!-- 16 -->
<g id="node17" class="node">
<title>16</title>
<path fill="none" stroke="#56d873" stroke-width="2" d="M1224.5,-108C1224.5,-108 1087.5,-108 1087.5,-108 1081.5,-108 1075.5,-102 1075.5,-96 1075.5,-96 1075.5,-84 1075.5,-84 1075.5,-78 1081.5,-72 1087.5,-72 1087.5,-72 1224.5,-72 1224.5,-72 1230.5,-72 1236.5,-78 1236.5,-84 1236.5,-84 1236.5,-96 1236.5,-96 1236.5,-102 1230.5,-108 1224.5,-108"/>
<text text-anchor="middle" x="1156" y="-87.5" font-family="sans" font-size="10.00">mpse_diversity_beta_plot_pcoa</text>
</g>
<!-- 13&#45;&gt;16 -->
<g id="edge38" class="edge">
<title>13&#45;&gt;16</title>
<path fill="none" stroke="grey" stroke-width="2" d="M1063.61,-143.15C1078.77,-134.6 1097.15,-124.22 1113.51,-114.99"/>
<polygon fill="grey" stroke="grey" stroke-width="2" points="1114.82,-118.26 1121.81,-110.3 1111.38,-112.17 1114.82,-118.26"/>
</g>
<!-- 17 -->
<g id="node18" class="node">
<title>17</title>
<path fill="none" stroke="#a7d856" stroke-width="2" d="M1407,-108C1407,-108 1267,-108 1267,-108 1261,-108 1255,-102 1255,-96 1255,-96 1255,-84 1255,-84 1255,-78 1261,-72 1267,-72 1267,-72 1407,-72 1407,-72 1413,-72 1419,-78 1419,-84 1419,-84 1419,-96 1419,-96 1419,-102 1413,-108 1407,-108"/>
<text text-anchor="middle" x="1337" y="-87.5" font-family="sans" font-size="10.00">mpse_diversity_beta_plot_nmds</text>
</g>
<!-- 13&#45;&gt;17 -->
<g id="edge39" class="edge">
<title>13&#45;&gt;17</title>
<path fill="none" stroke="grey" stroke-width="2" d="M1096.68,-146.15C1140.1,-136.19 1197.93,-122.92 1245.98,-111.89"/>
<polygon fill="grey" stroke="grey" stroke-width="2" points="1246.7,-115.32 1255.66,-109.67 1245.13,-108.49 1246.7,-115.32"/>
</g>
<!-- 18 -->
<g id="node19" class="node">
<title>18</title>
<path fill="none" stroke="#61d856" stroke-width="2" d="M1585,-108C1585,-108 1449,-108 1449,-108 1443,-108 1437,-102 1437,-96 1437,-96 1437,-84 1437,-84 1437,-78 1443,-72 1449,-72 1449,-72 1585,-72 1585,-72 1591,-72 1597,-78 1597,-84 1597,-84 1597,-96 1597,-96 1597,-102 1591,-108 1585,-108"/>
<text text-anchor="middle" x="1517" y="-87.5" font-family="sans" font-size="10.00">mpse_diversity_beta_plot_clust</text>
</g>
<!-- 13&#45;&gt;18 -->
<g id="edge40" class="edge">
<title>13&#45;&gt;18</title>
<path fill="none" stroke="grey" stroke-width="2" d="M1096.98,-153.43C1172.89,-144.34 1302.53,-128.03 1423.25,-108.73"/>
<polygon fill="grey" stroke="grey" stroke-width="2" points="1423.72,-112.19 1433.04,-107.15 1422.61,-105.28 1423.72,-112.19"/>
</g>
<!-- 19 -->
<g id="node20" class="node">
<title>19</title>
<path fill="none" stroke="#97d856" stroke-width="2" d="M1703,-108C1703,-108 1627,-108 1627,-108 1621,-108 1615,-102 1615,-96 1615,-96 1615,-84 1615,-84 1615,-78 1621,-72 1627,-72 1627,-72 1703,-72 1703,-72 1709,-72 1715,-78 1715,-84 1715,-84 1715,-96 1715,-96 1715,-102 1709,-108 1703,-108"/>
<text text-anchor="middle" x="1665" y="-87.5" font-family="sans" font-size="10.00">mpse_permanova</text>
</g>
<!-- 13&#45;&gt;19 -->
<g id="edge41" class="edge">
<title>13&#45;&gt;19</title>
<path fill="none" stroke="grey" stroke-width="2" d="M1096.68,-159C1201.2,-154.89 1413.72,-142.97 1601.67,-108.62"/>
<polygon fill="grey" stroke="grey" stroke-width="2" points="1602.13,-112.09 1611.32,-106.82 1600.85,-105.21 1602.13,-112.09"/>
</g>
<!-- 14&#45;&gt;0 -->
<g id="edge14" class="edge">
<title>14&#45;&gt;0</title>
<path fill="none" stroke="grey" stroke-width="2" d="M770.29,-71.15C749.44,-61.02 723.33,-48.33 702.1,-38.01"/>
<polygon fill="grey" stroke="grey" stroke-width="2" points="703.79,-34.94 693.27,-33.71 700.73,-41.23 703.79,-34.94"/>
</g>
<!-- 15&#45;&gt;0 -->
<g id="edge15" class="edge">
<title>15&#45;&gt;0</title>
<path fill="none" stroke="grey" stroke-width="2" d="M901.64,-71.7C838.69,-57.8 752.86,-38.84 703.14,-27.86"/>
<polygon fill="grey" stroke="grey" stroke-width="2" points="704.19,-24.51 693.68,-25.77 702.69,-31.35 704.19,-24.51"/>
</g>
<!-- 16&#45;&gt;0 -->
<g id="edge16" class="edge">
<title>16&#45;&gt;0</title>
<path fill="none" stroke="grey" stroke-width="2" d="M1074.6,-73.41C1071.7,-72.93 1068.83,-72.45 1066,-72 933.82,-50.84 776.25,-31.94 703.5,-23.57"/>
<polygon fill="grey" stroke="grey" stroke-width="2" points="704.27,-20.13 693.93,-22.47 703.47,-27.09 704.27,-20.13"/>
</g>
<!-- 17&#45;&gt;0 -->
<g id="edge17" class="edge">
<title>17&#45;&gt;0</title>
<path fill="none" stroke="grey" stroke-width="2" d="M1254.31,-73.35C1251.17,-72.87 1248.06,-72.42 1245,-72 1042.86,-44.18 799.14,-27.36 703.92,-21.43"/>
<polygon fill="grey" stroke="grey" stroke-width="2" points="704.19,-17.94 693.99,-20.82 703.76,-24.92 704.19,-17.94"/>
</g>
<!-- 18&#45;&gt;0 -->
<g id="edge18" class="edge">
<title>18&#45;&gt;0</title>
<path fill="none" stroke="grey" stroke-width="2" d="M1436.06,-73.11C1433.34,-72.72 1430.65,-72.34 1428,-72 1152.7,-36.3 818.32,-23.59 703.77,-20.11"/>
<polygon fill="grey" stroke="grey" stroke-width="2" points="704.03,-16.62 693.93,-19.82 703.82,-23.61 704.03,-16.62"/>
</g>
<!-- 19&#45;&gt;0 -->
<g id="edge19" class="edge">
<title>19&#45;&gt;0</title>
<path fill="none" stroke="grey" stroke-width="2" d="M1614.32,-73.61C1611.52,-73.01 1608.73,-72.46 1606,-72 1428.31,-41.8 860.37,-24.38 703.49,-20.07"/>
<polygon fill="grey" stroke="grey" stroke-width="2" points="703.95,-16.58 693.86,-19.8 703.76,-23.57 703.95,-16.58"/>
</g>
<!-- 20&#45;&gt;0 -->
<g id="edge20" class="edge">
<title>20&#45;&gt;0</title>
<path fill="none" stroke="grey" stroke-width="2" d="M1804.21,-143.09C1791.98,-132.93 1776.51,-119.91 1763,-108 1745.3,-92.4 1745.75,-81.14 1724,-72 1628.71,-31.98 886.87,-21.41 703.76,-19.4"/>
<polygon fill="grey" stroke="grey" stroke-width="2" points="703.9,-15.9 693.87,-19.29 703.83,-22.9 703.9,-15.9"/>
</g>
<!-- 21 -->
<g id="node22" class="node">
<title>21</title>
<path fill="none" stroke="#d87d56" stroke-width="2" d="M1868.5,-108C1868.5,-108 1783.5,-108 1783.5,-108 1777.5,-108 1771.5,-102 1771.5,-96 1771.5,-96 1771.5,-84 1771.5,-84 1771.5,-78 1777.5,-72 1783.5,-72 1783.5,-72 1868.5,-72 1868.5,-72 1874.5,-72 1880.5,-78 1880.5,-84 1880.5,-84 1880.5,-96 1880.5,-96 1880.5,-102 1874.5,-108 1868.5,-108"/>
<text text-anchor="middle" x="1826" y="-87.5" font-family="sans" font-size="10.00">mpse_diff_plot_tree</text>
</g>
<!-- 20&#45;&gt;21 -->
<g id="edge43" class="edge">
<title>20&#45;&gt;21</title>
<path fill="none" stroke="grey" stroke-width="2" d="M1826,-143.34C1826,-136.75 1826,-129.08 1826,-121.67"/>
<polygon fill="grey" stroke="grey" stroke-width="2" points="1829.5,-121.93 1826,-111.93 1822.5,-121.93 1829.5,-121.93"/>
</g>
<!-- 22 -->
<g id="node23" class="node">
<title>22</title>
<path fill="none" stroke="#56b1d8" stroke-width="2" d="M2023.5,-108C2023.5,-108 1910.5,-108 1910.5,-108 1904.5,-108 1898.5,-102 1898.5,-96 1898.5,-96 1898.5,-84 1898.5,-84 1898.5,-78 1904.5,-72 1910.5,-72 1910.5,-72 2023.5,-72 2023.5,-72 2029.5,-72 2035.5,-78 2035.5,-84 2035.5,-84 2035.5,-96 2035.5,-96 2035.5,-102 2029.5,-108 2023.5,-108"/>
<text text-anchor="middle" x="1967" y="-87.5" font-family="sans" font-size="10.00">mpse_diff_plot_cladogram</text>
</g>
<!-- 20&#45;&gt;22 -->
<g id="edge44" class="edge">
<title>20&#45;&gt;22</title>
<path fill="none" stroke="grey" stroke-width="2" d="M1861.95,-143.15C1879.43,-134.47 1900.68,-123.92 1919.48,-114.59"/>
<polygon fill="grey" stroke="grey" stroke-width="2" points="1921.01,-117.74 1928.41,-110.16 1917.9,-111.47 1921.01,-117.74"/>
</g>
<!-- 23 -->
<g id="node24" class="node">
<title>23</title>
<path fill="none" stroke="#d8d356" stroke-width="2" d="M2168,-108C2168,-108 2066,-108 2066,-108 2060,-108 2054,-102 2054,-96 2054,-96 2054,-84 2054,-84 2054,-78 2060,-72 2066,-72 2066,-72 2168,-72 2168,-72 2174,-72 2180,-78 2180,-84 2180,-84 2180,-96 2180,-96 2180,-102 2174,-108 2168,-108"/>
<text text-anchor="middle" x="2117" y="-87.5" font-family="sans" font-size="10.00">mpse_diff_plot_box_bar</text>
</g>
<!-- 20&#45;&gt;23 -->
<g id="edge45" class="edge">
<title>20&#45;&gt;23</title>
<path fill="none" stroke="grey" stroke-width="2" d="M1865.85,-151.41C1910.71,-140.62 1984.65,-122.84 2040.71,-109.35"/>
<polygon fill="grey" stroke="grey" stroke-width="2" points="2041.26,-112.82 2050.16,-107.08 2039.62,-106.01 2041.26,-112.82"/>
</g>
<!-- 21&#45;&gt;0 -->
<g id="edge21" class="edge">
<title>21&#45;&gt;0</title>
<path fill="none" stroke="grey" stroke-width="2" d="M1770.82,-74.41C1766.17,-73.48 1761.52,-72.66 1757,-72 1547.7,-41.44 875.95,-23.97 703.6,-19.92"/>
<polygon fill="grey" stroke="grey" stroke-width="2" points="703.82,-16.42 693.74,-19.69 703.66,-23.42 703.82,-16.42"/>
</g>
<!-- 22&#45;&gt;0 -->
<g id="edge22" class="edge">
<title>22&#45;&gt;0</title>
<path fill="none" stroke="grey" stroke-width="2" d="M1897.84,-73.14C1895.2,-72.72 1892.58,-72.34 1890,-72 1652.81,-40.93 888.76,-23.61 703.67,-19.8"/>
<polygon fill="grey" stroke="grey" stroke-width="2" points="703.97,-16.31 693.9,-19.61 703.83,-23.31 703.97,-16.31"/>
</g>
<!-- 23&#45;&gt;0 -->
<g id="edge23" class="edge">
<title>23&#45;&gt;0</title>
<path fill="none" stroke="grey" stroke-width="2" d="M2053.13,-73.24C2050.39,-72.78 2047.67,-72.36 2045,-72 1775.93,-35.43 903.47,-22.11 703.92,-19.5"/>
<polygon fill="grey" stroke="grey" stroke-width="2" points="704.05,-16 694.01,-19.37 703.96,-23 704.05,-16"/>
</g>
</g>
</svg>
