<?xml version="1.0" encoding="UTF-8" standalone="no"?>
<!DOCTYPE svg PUBLIC "-//W3C//DTD SVG 1.1//EN"
 "http://www.w3.org/Graphics/SVG/1.1/DTD/svg11.dtd">
<!-- Generated by graphviz version 2.43.0 (0)
 -->
<!-- Title: snakemake_dag Pages: 1 -->
<svg width="841pt" height="332pt"
 viewBox="0.00 0.00 841.05 332.00" xmlns="http://www.w3.org/2000/svg" xmlns:xlink="http://www.w3.org/1999/xlink">
<g id="graph0" class="graph" transform="scale(1 1) rotate(0) translate(4 328)">
<title>snakemake_dag</title>
<polygon fill="white" stroke="transparent" points="-4,4 -4,-328 837.05,-328 837.05,4 -4,4"/>
<!-- 0 -->
<g id="node1" class="node">
<title>0</title>
<path fill="none" stroke="#d85656" stroke-width="2" d="M465.05,-36C465.05,-36 435.05,-36 435.05,-36 429.05,-36 423.05,-30 423.05,-24 423.05,-24 423.05,-12 423.05,-12 423.05,-6 429.05,0 435.05,0 435.05,0 465.05,0 465.05,0 471.05,0 477.05,-6 477.05,-12 477.05,-12 477.05,-24 477.05,-24 477.05,-30 471.05,-36 465.05,-36"/>
<text text-anchor="middle" x="450.05" y="-15.5" font-family="sans" font-size="10.00">all</text>
</g>
<!-- 1 -->
<g id="node2" class="node">
<title>1</title>
<path fill="none" stroke="#c6d856" stroke-width="2" d="M123.05,-324C123.05,-324 27.05,-324 27.05,-324 21.05,-324 15.05,-318 15.05,-312 15.05,-312 15.05,-300 15.05,-300 15.05,-294 21.05,-288 27.05,-288 27.05,-288 123.05,-288 123.05,-288 129.05,-288 135.05,-294 135.05,-300 135.05,-300 135.05,-312 135.05,-312 135.05,-318 129.05,-324 123.05,-324"/>
<text text-anchor="middle" x="75.05" y="-303.5" font-family="sans" font-size="10.00">mpse_import_qiime2</text>
</g>
<!-- 1&#45;&gt;0 -->
<g id="edge1" class="edge">
<title>1&#45;&gt;0</title>
<path fill="none" stroke="grey" stroke-width="2" d="M62.45,-287.91C32.94,-245.72 -33.99,-135.41 22.05,-72 47.8,-42.87 313.46,-26.12 412.82,-20.84"/>
<polygon fill="grey" stroke="grey" stroke-width="2" points="413.2,-24.32 423,-20.31 412.83,-17.33 413.2,-24.32"/>
</g>
<!-- 2 -->
<g id="node3" class="node">
<title>2</title>
<path fill="none" stroke="#56d8c9" stroke-width="2" d="M239.55,-252C239.55,-252 186.55,-252 186.55,-252 180.55,-252 174.55,-246 174.55,-240 174.55,-240 174.55,-228 174.55,-228 174.55,-222 180.55,-216 186.55,-216 186.55,-216 239.55,-216 239.55,-216 245.55,-216 251.55,-222 251.55,-228 251.55,-228 251.55,-240 251.55,-240 251.55,-246 245.55,-252 239.55,-252"/>
<text text-anchor="middle" x="213.05" y="-231.5" font-family="sans" font-size="10.00">mpse_rarefy</text>
</g>
<!-- 1&#45;&gt;2 -->
<g id="edge13" class="edge">
<title>1&#45;&gt;2</title>
<path fill="none" stroke="grey" stroke-width="2" d="M108.81,-287.88C127.27,-278.51 150.34,-266.81 170.07,-256.8"/>
<polygon fill="grey" stroke="grey" stroke-width="2" points="171.83,-259.83 179.17,-252.19 168.66,-253.59 171.83,-259.83"/>
</g>
<!-- 2&#45;&gt;0 -->
<g id="edge2" class="edge">
<title>2&#45;&gt;0</title>
<path fill="none" stroke="grey" stroke-width="2" d="M174.35,-218.37C108.38,-191.37 -13.89,-131.05 38.05,-72 62.64,-44.04 315.66,-26.7 412.57,-21.04"/>
<polygon fill="grey" stroke="grey" stroke-width="2" points="413.01,-24.52 422.79,-20.45 412.61,-17.53 413.01,-24.52"/>
</g>
<!-- 3 -->
<g id="node4" class="node">
<title>3</title>
<path fill="none" stroke="#d87d56" stroke-width="2" d="M136.55,-108C136.55,-108 59.55,-108 59.55,-108 53.55,-108 47.55,-102 47.55,-96 47.55,-96 47.55,-84 47.55,-84 47.55,-78 53.55,-72 59.55,-72 59.55,-72 136.55,-72 136.55,-72 142.55,-72 148.55,-78 148.55,-84 148.55,-84 148.55,-96 148.55,-96 148.55,-102 142.55,-108 136.55,-108"/>
<text text-anchor="middle" x="98.05" y="-87.5" font-family="sans" font-size="10.00">mpse_rarefy_plot</text>
</g>
<!-- 2&#45;&gt;3 -->
<g id="edge14" class="edge">
<title>2&#45;&gt;3</title>
<path fill="none" stroke="grey" stroke-width="2" d="M188.88,-215.84C176.37,-206.21 161.38,-193.45 150.05,-180 133.85,-160.77 119.77,-135.84 110.36,-117.26"/>
<polygon fill="grey" stroke="grey" stroke-width="2" points="113.45,-115.6 105.88,-108.18 107.17,-118.7 113.45,-115.6"/>
</g>
<!-- 4 -->
<g id="node5" class="node">
<title>4</title>
<path fill="none" stroke="#78d856" stroke-width="2" d="M263.55,-108C263.55,-108 178.55,-108 178.55,-108 172.55,-108 166.55,-102 166.55,-96 166.55,-96 166.55,-84 166.55,-84 166.55,-78 172.55,-72 178.55,-72 178.55,-72 263.55,-72 263.55,-72 269.55,-72 275.55,-78 275.55,-84 275.55,-84 275.55,-96 275.55,-96 275.55,-102 269.55,-108 263.55,-108"/>
<text text-anchor="middle" x="221.05" y="-93" font-family="sans" font-size="10.00">mpse_composition</text>
<text text-anchor="middle" x="221.05" y="-82" font-family="sans" font-size="10.00">level: Phylum</text>
</g>
<!-- 2&#45;&gt;4 -->
<g id="edge15" class="edge">
<title>2&#45;&gt;4</title>
<path fill="none" stroke="grey" stroke-width="2" d="M187.67,-215.95C176.34,-206.79 164.18,-194.4 158.05,-180 151.79,-165.28 151.3,-158.51 158.05,-144 163.48,-132.34 172.87,-122.34 182.77,-114.26"/>
<polygon fill="grey" stroke="grey" stroke-width="2" points="184.91,-117.03 190.75,-108.2 180.67,-111.45 184.91,-117.03"/>
</g>
<!-- 5 -->
<g id="node6" class="node">
<title>5</title>
<path fill="none" stroke="#78d856" stroke-width="2" d="M390.55,-108C390.55,-108 305.55,-108 305.55,-108 299.55,-108 293.55,-102 293.55,-96 293.55,-96 293.55,-84 293.55,-84 293.55,-78 299.55,-72 305.55,-72 305.55,-72 390.55,-72 390.55,-72 396.55,-72 402.55,-78 402.55,-84 402.55,-84 402.55,-96 402.55,-96 402.55,-102 396.55,-108 390.55,-108"/>
<text text-anchor="middle" x="348.05" y="-93" font-family="sans" font-size="10.00">mpse_composition</text>
<text text-anchor="middle" x="348.05" y="-82" font-family="sans" font-size="10.00">level: Class</text>
</g>
<!-- 2&#45;&gt;5 -->
<g id="edge16" class="edge">
<title>2&#45;&gt;5</title>
<path fill="none" stroke="grey" stroke-width="2" d="M201.1,-215.69C189.47,-196.51 175.65,-165.46 191.05,-144 196.9,-135.86 242.89,-120.88 283.59,-108.92"/>
<polygon fill="grey" stroke="grey" stroke-width="2" points="284.63,-112.26 293.26,-106.1 282.68,-105.54 284.63,-112.26"/>
</g>
<!-- 6 -->
<g id="node7" class="node">
<title>6</title>
<path fill="none" stroke="#78d856" stroke-width="2" d="M297.55,-180C297.55,-180 212.55,-180 212.55,-180 206.55,-180 200.55,-174 200.55,-168 200.55,-168 200.55,-156 200.55,-156 200.55,-150 206.55,-144 212.55,-144 212.55,-144 297.55,-144 297.55,-144 303.55,-144 309.55,-150 309.55,-156 309.55,-156 309.55,-168 309.55,-168 309.55,-174 303.55,-180 297.55,-180"/>
<text text-anchor="middle" x="255.05" y="-165" font-family="sans" font-size="10.00">mpse_composition</text>
<text text-anchor="middle" x="255.05" y="-154" font-family="sans" font-size="10.00">level: Order</text>
</g>
<!-- 2&#45;&gt;6 -->
<g id="edge17" class="edge">
<title>2&#45;&gt;6</title>
<path fill="none" stroke="grey" stroke-width="2" d="M223.44,-215.7C228.32,-207.56 234.24,-197.69 239.63,-188.7"/>
<polygon fill="grey" stroke="grey" stroke-width="2" points="242.65,-190.48 244.79,-180.1 236.65,-186.88 242.65,-190.48"/>
</g>
<!-- 7 -->
<g id="node8" class="node">
<title>7</title>
<path fill="none" stroke="#78d856" stroke-width="2" d="M424.55,-180C424.55,-180 339.55,-180 339.55,-180 333.55,-180 327.55,-174 327.55,-168 327.55,-168 327.55,-156 327.55,-156 327.55,-150 333.55,-144 339.55,-144 339.55,-144 424.55,-144 424.55,-144 430.55,-144 436.55,-150 436.55,-156 436.55,-156 436.55,-168 436.55,-168 436.55,-174 430.55,-180 424.55,-180"/>
<text text-anchor="middle" x="382.05" y="-165" font-family="sans" font-size="10.00">mpse_composition</text>
<text text-anchor="middle" x="382.05" y="-154" font-family="sans" font-size="10.00">level: Family</text>
</g>
<!-- 2&#45;&gt;7 -->
<g id="edge18" class="edge">
<title>2&#45;&gt;7</title>
<path fill="none" stroke="grey" stroke-width="2" d="M251.83,-216.94C275.42,-207.17 305.81,-194.58 331.3,-184.02"/>
<polygon fill="grey" stroke="grey" stroke-width="2" points="332.91,-187.14 340.81,-180.08 330.23,-180.68 332.91,-187.14"/>
</g>
<!-- 8 -->
<g id="node9" class="node">
<title>8</title>
<path fill="none" stroke="#78d856" stroke-width="2" d="M551.55,-180C551.55,-180 466.55,-180 466.55,-180 460.55,-180 454.55,-174 454.55,-168 454.55,-168 454.55,-156 454.55,-156 454.55,-150 460.55,-144 466.55,-144 466.55,-144 551.55,-144 551.55,-144 557.55,-144 563.55,-150 563.55,-156 563.55,-156 563.55,-168 563.55,-168 563.55,-174 557.55,-180 551.55,-180"/>
<text text-anchor="middle" x="509.05" y="-165" font-family="sans" font-size="10.00">mpse_composition</text>
<text text-anchor="middle" x="509.05" y="-154" font-family="sans" font-size="10.00">level: Genus</text>
</g>
<!-- 2&#45;&gt;8 -->
<g id="edge19" class="edge">
<title>2&#45;&gt;8</title>
<path fill="none" stroke="grey" stroke-width="2" d="M251.74,-224.6C295.89,-214.91 370.51,-198.25 444.34,-180.13"/>
<polygon fill="grey" stroke="grey" stroke-width="2" points="445.4,-183.48 454.27,-177.69 443.73,-176.68 445.4,-183.48"/>
</g>
<!-- 9 -->
<g id="node10" class="node">
<title>9</title>
<path fill="none" stroke="#78d856" stroke-width="2" d="M678.55,-180C678.55,-180 593.55,-180 593.55,-180 587.55,-180 581.55,-174 581.55,-168 581.55,-168 581.55,-156 581.55,-156 581.55,-150 587.55,-144 593.55,-144 593.55,-144 678.55,-144 678.55,-144 684.55,-144 690.55,-150 690.55,-156 690.55,-156 690.55,-168 690.55,-168 690.55,-174 684.55,-180 678.55,-180"/>
<text text-anchor="middle" x="636.05" y="-165" font-family="sans" font-size="10.00">mpse_composition</text>
<text text-anchor="middle" x="636.05" y="-154" font-family="sans" font-size="10.00">level: OTU</text>
</g>
<!-- 2&#45;&gt;9 -->
<g id="edge20" class="edge">
<title>2&#45;&gt;9</title>
<path fill="none" stroke="grey" stroke-width="2" d="M251.56,-228.76C315.81,-221.38 449.08,-204.74 571.42,-180"/>
<polygon fill="grey" stroke="grey" stroke-width="2" points="572.24,-183.4 581.34,-177.97 570.84,-176.54 572.24,-183.4"/>
</g>
<!-- 10 -->
<g id="node11" class="node">
<title>10</title>
<path fill="none" stroke="#d8a456" stroke-width="2" d="M821.05,-180C821.05,-180 721.05,-180 721.05,-180 715.05,-180 709.05,-174 709.05,-168 709.05,-168 709.05,-156 709.05,-156 709.05,-150 715.05,-144 721.05,-144 721.05,-144 821.05,-144 821.05,-144 827.05,-144 833.05,-150 833.05,-156 833.05,-156 833.05,-168 833.05,-168 833.05,-174 827.05,-180 821.05,-180"/>
<text text-anchor="middle" x="771.05" y="-159.5" font-family="sans" font-size="10.00">mpse_diversity_alpha</text>
</g>
<!-- 2&#45;&gt;10 -->
<g id="edge21" class="edge">
<title>2&#45;&gt;10</title>
<path fill="none" stroke="grey" stroke-width="2" d="M251.71,-230.41C332.72,-224.64 526.29,-209.01 698.69,-179.93"/>
<polygon fill="grey" stroke="grey" stroke-width="2" points="699.44,-183.35 708.71,-178.22 698.26,-176.45 699.44,-183.35"/>
</g>
<!-- 3&#45;&gt;0 -->
<g id="edge3" class="edge">
<title>3&#45;&gt;0</title>
<path fill="none" stroke="grey" stroke-width="2" d="M148.82,-74.02C151.6,-73.31 154.36,-72.63 157.05,-72 248.08,-50.71 356.72,-33.05 412.66,-24.52"/>
<polygon fill="grey" stroke="grey" stroke-width="2" points="413.44,-27.94 422.8,-22.98 412.39,-21.02 413.44,-27.94"/>
</g>
<!-- 4&#45;&gt;0 -->
<g id="edge4" class="edge">
<title>4&#45;&gt;0</title>
<path fill="none" stroke="grey" stroke-width="2" d="M275.61,-72.32C318.06,-59.35 375.81,-41.7 413.01,-30.32"/>
<polygon fill="grey" stroke="grey" stroke-width="2" points="414.39,-33.56 422.93,-27.29 412.34,-26.87 414.39,-33.56"/>
</g>
<!-- 5&#45;&gt;0 -->
<g id="edge5" class="edge">
<title>5&#45;&gt;0</title>
<path fill="none" stroke="grey" stroke-width="2" d="M373.01,-71.88C386.1,-62.89 402.31,-51.76 416.49,-42.03"/>
<polygon fill="grey" stroke="grey" stroke-width="2" points="418.74,-44.73 425.01,-36.19 414.78,-38.96 418.74,-44.73"/>
</g>
<!-- 6&#45;&gt;0 -->
<g id="edge6" class="edge">
<title>6&#45;&gt;0</title>
<path fill="none" stroke="grey" stroke-width="2" d="M309.92,-144.74C351.65,-131.98 403.2,-115.21 411.05,-108 428.86,-91.66 438.95,-65.74 444.38,-46.07"/>
<polygon fill="grey" stroke="grey" stroke-width="2" points="447.83,-46.72 446.88,-36.17 441.04,-45.01 447.83,-46.72"/>
</g>
<!-- 7&#45;&gt;0 -->
<g id="edge7" class="edge">
<title>7&#45;&gt;0</title>
<path fill="none" stroke="grey" stroke-width="2" d="M411.65,-143.86C424.24,-134.89 437.7,-122.7 445.05,-108 454.6,-88.91 455.31,-64.55 453.94,-46.15"/>
<polygon fill="grey" stroke="grey" stroke-width="2" points="457.41,-45.69 452.94,-36.09 450.44,-46.38 457.41,-45.69"/>
</g>
<!-- 8&#45;&gt;0 -->
<g id="edge8" class="edge">
<title>8&#45;&gt;0</title>
<path fill="none" stroke="grey" stroke-width="2" d="M505.49,-143.78C501.38,-125.48 493.77,-95.95 483.05,-72 478.85,-62.6 473.22,-52.88 467.81,-44.37"/>
<polygon fill="grey" stroke="grey" stroke-width="2" points="470.72,-42.43 462.31,-36 464.87,-46.28 470.72,-42.43"/>
</g>
<!-- 9&#45;&gt;0 -->
<g id="edge9" class="edge">
<title>9&#45;&gt;0</title>
<path fill="none" stroke="grey" stroke-width="2" d="M613.62,-143.87C580.38,-118.5 517.98,-70.85 480.6,-42.32"/>
<polygon fill="grey" stroke="grey" stroke-width="2" points="482.64,-39.48 472.57,-36.19 478.39,-45.04 482.64,-39.48"/>
</g>
<!-- 10&#45;&gt;0 -->
<g id="edge10" class="edge">
<title>10&#45;&gt;0</title>
<path fill="none" stroke="grey" stroke-width="2" d="M708.81,-144.08C668.77,-132.7 620.85,-118.01 602.05,-108 579.45,-95.96 578.65,-85.76 557.05,-72 534.62,-57.7 507.78,-44.42 486.6,-34.73"/>
<polygon fill="grey" stroke="grey" stroke-width="2" points="487.86,-31.45 477.3,-30.54 484.98,-37.84 487.86,-31.45"/>
</g>
<!-- 11 -->
<g id="node12" class="node">
<title>11</title>
<path fill="none" stroke="#56c9d8" stroke-width="2" d="M718.55,-108C718.55,-108 623.55,-108 623.55,-108 617.55,-108 611.55,-102 611.55,-96 611.55,-96 611.55,-84 611.55,-84 611.55,-78 617.55,-72 623.55,-72 623.55,-72 718.55,-72 718.55,-72 724.55,-72 730.55,-78 730.55,-84 730.55,-84 730.55,-96 730.55,-96 730.55,-102 724.55,-108 718.55,-108"/>
<text text-anchor="middle" x="671.05" y="-87.5" font-family="sans" font-size="10.00">mpse_diversity_beta</text>
</g>
<!-- 10&#45;&gt;11 -->
<g id="edge22" class="edge">
<title>10&#45;&gt;11</title>
<path fill="none" stroke="grey" stroke-width="2" d="M746.59,-143.88C733.76,-134.89 717.86,-123.76 703.96,-114.03"/>
<polygon fill="grey" stroke="grey" stroke-width="2" points="705.81,-111.06 695.61,-108.19 701.8,-116.79 705.81,-111.06"/>
</g>
<!-- 12 -->
<g id="node13" class="node">
<title>12</title>
<path fill="none" stroke="#56d87b" stroke-width="2" d="M801.55,-108C801.55,-108 760.55,-108 760.55,-108 754.55,-108 748.55,-102 748.55,-96 748.55,-96 748.55,-84 748.55,-84 748.55,-78 754.55,-72 760.55,-72 760.55,-72 801.55,-72 801.55,-72 807.55,-72 813.55,-78 813.55,-84 813.55,-84 813.55,-96 813.55,-96 813.55,-102 807.55,-108 801.55,-108"/>
<text text-anchor="middle" x="781.05" y="-87.5" font-family="sans" font-size="10.00">mpse_diff</text>
</g>
<!-- 10&#45;&gt;12 -->
<g id="edge23" class="edge">
<title>10&#45;&gt;12</title>
<path fill="none" stroke="grey" stroke-width="2" d="M773.53,-143.7C774.63,-135.98 775.95,-126.71 777.18,-118.11"/>
<polygon fill="grey" stroke="grey" stroke-width="2" points="780.66,-118.5 778.61,-108.1 773.73,-117.51 780.66,-118.5"/>
</g>
<!-- 11&#45;&gt;0 -->
<g id="edge11" class="edge">
<title>11&#45;&gt;0</title>
<path fill="none" stroke="grey" stroke-width="2" d="M617.27,-71.97C576.92,-59.18 522.73,-42.02 487.12,-30.74"/>
<polygon fill="grey" stroke="grey" stroke-width="2" points="487.74,-27.26 477.15,-27.58 485.62,-33.94 487.74,-27.26"/>
</g>
<!-- 12&#45;&gt;0 -->
<g id="edge12" class="edge">
<title>12&#45;&gt;0</title>
<path fill="none" stroke="grey" stroke-width="2" d="M748.26,-74.99C745.18,-73.9 742.08,-72.88 739.05,-72 650.47,-46.24 542.82,-30.43 487.25,-23.36"/>
<polygon fill="grey" stroke="grey" stroke-width="2" points="487.53,-19.87 477.17,-22.1 486.66,-26.82 487.53,-19.87"/>
</g>
</g>
</svg>
